<svg width="28" height="27" viewBox="0 0 28 27" fill="none" xmlns="http://www.w3.org/2000/svg">
<path d="M3.5 5.90629C3.26794 5.90629 3.04538 5.99518 2.88128 6.15341C2.71719 6.31165 2.625 6.52626 2.625 6.75004C2.625 6.97381 2.71719 7.18842 2.88128 7.34666C3.04538 7.50489 3.26794 7.59379 3.5 7.59379H5.4425L7.7385 16.4532C7.93362 17.2041 8.631 17.7188 9.43338 17.7188H20.3446C21.1347 17.7188 21.8059 17.2125 22.0133 16.4785L24.2812 8.43754H22.449L20.3438 16.0313H9.4325L7.13737 7.17191C7.04257 6.80845 6.82402 6.48618 6.51672 6.25671C6.20942 6.02724 5.83116 5.90384 5.4425 5.90629H3.5ZM19.25 17.7188C17.8106 17.7188 16.625 18.8621 16.625 20.25C16.625 21.638 17.8106 22.7813 19.25 22.7813C20.6894 22.7813 21.875 21.638 21.875 20.25C21.875 18.8621 20.6894 17.7188 19.25 17.7188ZM11.375 17.7188C9.93563 17.7188 8.75 18.8621 8.75 20.25C8.75 21.638 9.93563 22.7813 11.375 22.7813C12.8144 22.7813 14 21.638 14 20.25C14 18.8621 12.8144 17.7188 11.375 17.7188ZM14 5.90629V10.125H11.375L14.875 13.5L18.375 10.125H15.75V5.90629H14ZM11.375 19.4063C11.8685 19.4063 12.25 19.7742 12.25 20.25C12.25 20.7259 11.8685 21.0938 11.375 21.0938C10.8815 21.0938 10.5 20.7259 10.5 20.25C10.5 19.7742 10.8815 19.4063 11.375 19.4063ZM19.25 19.4063C19.7435 19.4063 20.125 19.7742 20.125 20.25C20.125 20.7259 19.7435 21.0938 19.25 21.0938C18.7565 21.0938 18.375 20.7259 18.375 20.25C18.375 19.7742 18.7565 19.4063 19.25 19.4063Z" fill="#EEEEEE"/>
</svg>
