<svg width="21" height="21" viewBox="0 0 21 21" fill="none" xmlns="http://www.w3.org/2000/svg">
<path d="M10.023 1.999C9.72292 2.46645 9.48429 2.97059 9.313 3.499L3.25 3.5C2.78587 3.5 2.34075 3.68437 2.01256 4.01256C1.68437 4.34075 1.5 4.78587 1.5 5.25V13.75C1.5 14.716 2.284 15.5 3.25 15.5H5.499V19.25L10.514 15.5H16.75C17.2141 15.5 17.6592 15.3156 17.9874 14.9874C18.3156 14.6592 18.5 14.2141 18.5 13.75L18.501 11.267C19.0496 10.981 19.5547 10.6184 20.001 10.19L20 13.75C20 14.1768 19.9159 14.5994 19.7526 14.9937C19.5893 15.388 19.3499 15.7463 19.0481 16.0481C18.7463 16.3499 18.388 16.5893 17.9937 16.7526C17.5994 16.9159 17.1768 17 16.75 17H11.012L6 20.75C5.81428 20.889 5.59356 20.9736 5.36251 20.9943C5.13146 21.015 4.89922 20.971 4.69176 20.8672C4.4843 20.7634 4.30981 20.6039 4.18782 20.4066C4.06582 20.2093 4.00114 19.982 4.001 19.75V17H3.251C2.82412 17.0001 2.4014 16.9162 2.00697 16.7529C1.61255 16.5896 1.25415 16.3503 0.952256 16.0485C0.65036 15.7466 0.410877 15.3883 0.247487 14.994C0.0840967 14.5996 -2.02073e-08 14.1769 0 13.75V5.25C0 4.38805 0.34241 3.5614 0.951903 2.9519C1.5614 2.34241 2.38805 2 3.25 2L10.023 1.999ZM15.5 0C16.2223 -1.07627e-08 16.9375 0.142262 17.6048 0.418663C18.272 0.695063 18.8784 1.10019 19.3891 1.61091C19.8998 2.12163 20.3049 2.72795 20.5813 3.39524C20.8577 4.06253 21 4.77773 21 5.5C21 6.22227 20.8577 6.93747 20.5813 7.60476C20.3049 8.27205 19.8998 8.87837 19.3891 9.38909C18.8784 9.89981 18.272 10.3049 17.6048 10.5813C16.9375 10.8577 16.2223 11 15.5 11C14.0413 11 12.6424 10.4205 11.6109 9.38909C10.5795 8.35764 10 6.95869 10 5.5C10 4.04131 10.5795 2.64236 11.6109 1.61091C12.6424 0.579463 14.0413 2.17362e-08 15.5 0V0ZM14.216 2.589L14.146 2.646L11.618 5.178L11.588 5.215L11.547 5.289L11.517 5.372L11.502 5.454L11.5 5.521L11.508 5.589L11.523 5.651L11.547 5.711L11.577 5.767L11.617 5.822L14.147 8.354C14.2355 8.44128 14.3533 8.49249 14.4774 8.49764C14.6016 8.50279 14.7233 8.46151 14.8186 8.38185C14.914 8.30219 14.9763 8.18986 14.9934 8.06676C15.0105 7.94366 14.9811 7.81861 14.911 7.716L14.854 7.646L13.208 6H18.5C18.617 6.00004 18.7304 5.95903 18.8203 5.88411C18.9102 5.80919 18.9709 5.70511 18.992 5.59L19 5.5C19 5.38297 18.959 5.26964 18.8841 5.17974C18.8092 5.08984 18.7051 5.02906 18.59 5.008L18.5 5H13.208L14.854 3.354C14.9367 3.27114 14.9877 3.16191 14.9981 3.04533C15.0085 2.92874 14.9777 2.8122 14.911 2.716L14.854 2.646C14.7711 2.56332 14.6619 2.51234 14.5453 2.50192C14.4287 2.49151 14.3122 2.52232 14.216 2.589V2.589Z" fill="#7396AE"/>
</svg>
