<svg width="15" height="16" viewBox="0 0 15 16" fill="none" xmlns="http://www.w3.org/2000/svg">
<path d="M4.24511 0C4.38403 0 4.51726 0.0555903 4.6155 0.154542C4.71373 0.253493 4.76892 0.3877 4.76892 0.527638V1.51432H10.3939V0.534422C10.3939 0.394484 10.4491 0.260277 10.5473 0.161326C10.6455 0.0623742 10.7788 0.00678392 10.9177 0.00678392C11.0566 0.00678392 11.1899 0.0623742 11.2881 0.161326C11.3863 0.260277 11.4415 0.394484 11.4415 0.534422V1.51432H13.4694C13.8662 1.51432 14.2467 1.67305 14.5274 1.9556C14.808 2.23816 14.9658 2.62141 14.966 3.02111V13.5686C14.9658 13.9683 14.808 14.3515 14.5274 14.6341C14.2467 14.9167 13.8662 15.0754 13.4694 15.0754H1.4966C1.09981 15.0754 0.719254 14.9167 0.438609 14.6341C0.157963 14.3515 0.000198397 13.9683 0 13.5686L0 3.02111C0.000198397 2.62141 0.157963 2.23816 0.438609 1.9556C0.719254 1.67305 1.09981 1.51432 1.4966 1.51432H3.7213V0.526884C3.7215 0.387077 3.77677 0.253063 3.87498 0.154275C3.97319 0.0554867 4.10631 -1.42661e-07 4.24511 0V0ZM1.04762 5.83568V13.5686C1.04762 13.628 1.05923 13.6868 1.0818 13.7417C1.10436 13.7965 1.13743 13.8464 1.17912 13.8884C1.22082 13.9304 1.27031 13.9637 1.32478 13.9864C1.37926 14.0092 1.43764 14.0209 1.4966 14.0209H13.4694C13.5284 14.0209 13.5867 14.0092 13.6412 13.9864C13.6957 13.9637 13.7452 13.9304 13.7869 13.8884C13.8286 13.8464 13.8616 13.7965 13.8842 13.7417C13.9068 13.6868 13.9184 13.628 13.9184 13.5686V5.84623L1.04762 5.83568ZM4.98892 11.0193V12.2751H3.7415V11.0193H4.98892ZM8.10634 11.0193V12.2751H6.85967V11.0193H8.10634ZM11.2245 11.0193V12.2751H9.97709V11.0193H11.2245ZM4.98892 8.02161V9.27739H3.7415V8.02161H4.98892ZM8.10634 8.02161V9.27739H6.85967V8.02161H8.10634ZM11.2245 8.02161V9.27739H9.97709V8.02161H11.2245ZM3.7213 2.56884H1.4966C1.43764 2.56884 1.37926 2.58054 1.32478 2.60327C1.27031 2.626 1.22082 2.65931 1.17912 2.70131C1.13743 2.74331 1.10436 2.79316 1.0818 2.84803C1.05923 2.9029 1.04762 2.96171 1.04762 3.02111V4.78116L13.9184 4.79171V3.02111C13.9184 2.96171 13.9068 2.9029 13.8842 2.84803C13.8616 2.79316 13.8286 2.74331 13.7869 2.70131C13.7452 2.65931 13.6957 2.626 13.6412 2.60327C13.5867 2.58054 13.5284 2.56884 13.4694 2.56884H11.4415V3.2691C11.4415 3.40903 11.3863 3.54324 11.2881 3.64219C11.1899 3.74114 11.0566 3.79673 10.9177 3.79673C10.7788 3.79673 10.6455 3.74114 10.5473 3.64219C10.4491 3.54324 10.3939 3.40903 10.3939 3.2691V2.56884H4.76892V3.26231C4.76892 3.40225 4.71373 3.53646 4.6155 3.63541C4.51726 3.73436 4.38403 3.78995 4.24511 3.78995C4.10618 3.78995 3.97295 3.73436 3.87472 3.63541C3.77648 3.53646 3.7213 3.40225 3.7213 3.26231V2.56884V2.56884Z" fill="black" fill-opacity="0.5"/>
</svg>
