<svg width="15" height="15" viewBox="0 0 15 15" fill="none" xmlns="http://www.w3.org/2000/svg">
<path d="M7.46916 0.899994C7.31889 0.888819 7.16826 0.883222 7.01758 0.883213V0C7.18991 8.46362e-05 7.36218 0.00656593 7.53404 0.0194307L7.46916 0.899994ZM9.22636 1.29744C8.94528 1.18819 8.6566 1.09993 8.36266 1.03336L8.55469 0.171343C8.89053 0.2473 9.2211 0.347986 9.54202 0.473402L9.22636 1.29744V1.29744ZM10.4276 1.92452C10.3023 1.84031 10.1739 1.76076 10.0427 1.68605L10.475 0.917659C10.7748 1.08877 11.0617 1.28183 11.3334 1.49528L10.7942 2.19214C10.6753 2.09872 10.553 2.00975 10.4276 1.9254V1.92452ZM12.0358 3.50547C11.8623 3.25727 11.671 3.02229 11.4632 2.80244L12.098 2.19302C12.3348 2.44473 12.554 2.71411 12.753 2.99674L12.0358 3.50547V3.50547ZM12.6882 4.69958C12.6306 4.55955 12.568 4.42168 12.5005 4.28623L13.2835 3.88879C13.4384 4.19887 13.5703 4.52006 13.6781 4.84972L12.8451 5.12617C12.798 4.98209 12.7456 4.83979 12.6882 4.69958V4.69958ZM13.1529 6.91379C13.1458 6.61027 13.1165 6.30768 13.0652 6.0085L13.9289 5.85835C13.9876 6.19927 14.0218 6.54549 14.0306 6.89171L13.1538 6.91379H13.1529ZM13.038 8.27218C13.067 8.12203 13.0906 7.97277 13.109 7.82174L13.9798 7.93037C13.9376 8.27496 13.8702 8.61593 13.7781 8.95048L12.9328 8.71466C12.9731 8.56893 13.0082 8.42144 13.038 8.27218V8.27218ZM12.2033 10.3733C12.3646 10.1172 12.5066 9.84871 12.6294 9.57138L13.4308 9.92908C13.2905 10.247 13.1283 10.5526 12.9442 10.8459L12.2033 10.3733ZM11.358 11.4376C11.465 11.3299 11.5675 11.2186 11.6649 11.1038L12.3295 11.6805C12.217 11.8119 12.0997 11.9392 11.9779 12.062L11.358 11.4376V11.4376Z" fill="black" fill-opacity="0.5"/>
<path d="M7.01754 0.883213C6.00818 0.883287 5.01441 1.13409 4.12426 1.6134C3.23412 2.09271 2.47506 2.78574 1.91432 3.63111C1.35359 4.47648 1.00848 5.44808 0.909572 6.45988C0.810664 7.47167 0.961005 8.49241 1.34728 9.4317C1.73356 10.371 2.34384 11.1998 3.12408 11.8448C3.90433 12.4898 4.83044 12.931 5.8204 13.1294C6.81036 13.3277 7.83361 13.2771 8.79952 12.982C9.76543 12.687 10.6442 12.1565 11.3579 11.4376L11.9779 12.062C11.1622 12.8841 10.1578 13.4908 9.05362 13.8285C7.94948 14.1661 6.77971 14.2242 5.64795 13.9976C4.5162 13.771 3.4574 13.2667 2.56538 12.5295C1.67335 11.7922 0.975635 10.8447 0.534052 9.77089C0.0924703 8.6971 -0.079346 7.53017 0.033827 6.3735C0.147 5.21684 0.541668 4.10615 1.18286 3.13984C1.82406 2.17353 2.69198 1.38144 3.70973 0.833756C4.72748 0.286068 5.86364 -0.000308005 7.01754 2.48588e-07V0.883213Z" fill="black" fill-opacity="0.5"/>
<path d="M6.57905 2.64844C6.69533 2.64844 6.80684 2.69496 6.88907 2.77778C6.97129 2.8606 7.01748 2.97292 7.01748 3.09004V7.69159L9.86549 9.33084C9.96352 9.3904 10.0345 9.48622 10.0633 9.59782C10.0922 9.70942 10.0765 9.82795 10.0197 9.92806C9.96289 10.0282 9.86946 10.102 9.75938 10.1336C9.6493 10.1653 9.53129 10.1523 9.43058 10.0975L6.36159 8.33104C6.29449 8.29243 6.23871 8.23664 6.19991 8.16933C6.1611 8.10201 6.14065 8.02556 6.14062 7.94772V3.09004C6.14062 2.97292 6.18682 2.8606 6.26904 2.77778C6.35126 2.69496 6.46277 2.64844 6.57905 2.64844V2.64844Z" fill="black" fill-opacity="0.5"/>
</svg>
