<?xml version="1.0" encoding="UTF-8"?><svg xmlns="http://www.w3.org/2000/svg" xmlns:xlink="http://www.w3.org/1999/xlink" height="2222.1" preserveAspectRatio="xMidYMid meet" version="1.0" viewBox="0.0 0.0 2597.8 2222.1" width="2597.8" zoomAndPan="magnify"><defs><clipPath id="a"><path d="M 43.746094 1200.761719 C 43.746094 1041.128906 173.617188 911.25 333.253906 911.25 L 1062.050781 911.25 C 1065.820312 913.789062 1068.910156 917.050781 1069.070312 918.589844 C 1069.179688 919.699219 1067.039062 925.808594 1054.449219 935.378906 C 970.785156 999.039062 922.800781 1095.761719 922.800781 1200.761719 C 922.800781 1305.761719 970.785156 1402.488281 1054.449219 1466.140625 C 1067.039062 1475.71875 1069.179688 1481.828125 1069.070312 1482.941406 C 1068.910156 1484.480469 1065.789062 1487.761719 1062.070312 1490.269531 L 333.253906 1490.269531 C 173.617188 1490.269531 43.746094 1360.398438 43.746094 1200.761719 Z M 1731.691406 1720.320312 L 1745.300781 1719.480469 C 1842.820312 1713.488281 1942.519531 1689.808594 2050.089844 1647.078125 C 2142.320312 1610.449219 2247.820312 1631.53125 2318.878906 1700.789062 L 2457.339844 1835.761719 C 2458.570312 1836.960938 2459.929688 1838 2461.398438 1838.878906 L 2561.601562 1898.730469 C 2565.109375 1900.828125 2568.980469 1901.820312 2572.800781 1901.820312 C 2580.238281 1901.820312 2587.5 1898.019531 2591.601562 1891.160156 C 2597.789062 1880.789062 2594.398438 1867.359375 2584.03125 1861.171875 L 2486.039062 1802.640625 L 2349.410156 1669.46875 C 2266.019531 1588.179688 2142.191406 1563.429688 2033.949219 1606.421875 C 1930.738281 1647.421875 1835.441406 1670.121094 1742.621094 1675.820312 L 1729.011719 1676.660156 C 1691.078125 1678.988281 1659.109375 1700.011719 1641.398438 1730.351562 L 1270.96875 1539.589844 C 1216.628906 1511.269531 1150.730469 1531.019531 1120.949219 1584.578125 C 1090.96875 1638.46875 1110.289062 1706.769531 1164 1737 L 1782.230469 2106.050781 C 1786.269531 2108.46875 1790.371094 2110.78125 1794.5 2113.03125 L 333.253906 2113.03125 C 173.617188 2113.03125 43.746094 1983.160156 43.746094 1823.519531 C 43.746094 1663.890625 173.617188 1534.011719 333.253906 1534.011719 L 1067.71875 1534.011719 C 1070.820312 1534.011719 1073.898438 1533.351562 1076.71875 1532.070312 C 1080.050781 1530.570312 1109.28125 1516.578125 1112.539062 1487.878906 C 1114.789062 1468.019531 1104.160156 1448.988281 1080.941406 1431.320312 C 1008.238281 1376.019531 966.546875 1291.980469 966.546875 1200.761719 C 966.546875 1109.539062 1008.238281 1025.511719 1080.941406 970.199219 C 1104.160156 952.53125 1114.789062 933.511719 1112.539062 913.648438 C 1109.28125 884.941406 1080.050781 870.949219 1076.71875 869.449219 C 1073.898438 868.171875 1070.820312 867.511719 1067.71875 867.511719 L 333.253906 867.511719 C 149.496094 867.511719 0 1017.011719 0 1200.761719 C 0 1342.769531 89.316406 1464.238281 214.695312 1512.140625 C 89.316406 1560.039062 0 1681.519531 0 1823.519531 C 0 2007.28125 149.496094 2156.769531 333.253906 2156.769531 L 1968.121094 2156.769531 C 1968.160156 2156.769531 1968.191406 2156.769531 1968.230469 2156.769531 L 2261.578125 2156.769531 L 2365.710938 2218.96875 C 2369.21875 2221.070312 2373.089844 2222.070312 2376.898438 2222.070312 C 2384.351562 2222.070312 2391.609375 2218.261719 2395.699219 2211.410156 C 2401.898438 2201.039062 2398.511719 2187.609375 2388.140625 2181.410156 L 2278.820312 2116.121094 C 2275.429688 2114.101562 2271.558594 2113.03125 2267.609375 2113.03125 L 1968.089844 2113.03125 C 1910.609375 2113.390625 1854.050781 2098 1804.648438 2068.5 L 1186.171875 1699.289062 C 1185.988281 1699.179688 1185.808594 1699.078125 1185.628906 1698.980469 C 1152.71875 1680.578125 1140.851562 1638.789062 1159.179688 1605.839844 C 1177.359375 1573.148438 1217.578125 1561.089844 1250.851562 1578.429688 L 1627.410156 1772.359375 C 1626.738281 1777.941406 1626.371094 1783.601562 1626.570312 1789.410156 C 1628.628906 1849.460938 1679.171875 1896.699219 1739.21875 1894.800781 L 2113.671875 1882.75 C 2125.75 1882.359375 2135.21875 1872.25 2134.828125 1860.179688 C 2134.441406 1848.109375 2124.320312 1838.628906 2112.269531 1839.019531 L 1737.808594 1851.078125 C 1701.828125 1852.289062 1671.519531 1823.898438 1670.289062 1787.898438 C 1669.058594 1752.199219 1696.03125 1722.511719 1731.691406 1720.320312 Z M 1676.441406 1023.75 C 1688.519531 1023.75 1698.308594 1033.539062 1698.308594 1045.621094 L 1698.308594 1085.300781 C 1746.53125 1090.550781 1784.191406 1131.480469 1784.191406 1181.070312 C 1784.191406 1193.148438 1774.398438 1202.941406 1762.320312 1202.941406 C 1750.238281 1202.941406 1740.441406 1193.148438 1740.441406 1181.070312 C 1740.441406 1152.050781 1716.839844 1128.449219 1687.828125 1128.449219 L 1659.359375 1128.449219 C 1630.339844 1128.449219 1606.738281 1152.050781 1606.738281 1181.070312 C 1606.738281 1210.078125 1630.339844 1233.679688 1659.359375 1233.679688 L 1693.519531 1233.679688 C 1746.648438 1233.679688 1789.878906 1276.910156 1789.878906 1330.050781 C 1789.878906 1381.570312 1749.210938 1423.648438 1698.308594 1426.171875 L 1698.308594 1465.5 C 1698.308594 1477.570312 1688.519531 1487.371094 1676.441406 1487.371094 C 1664.359375 1487.371094 1654.570312 1477.570312 1654.570312 1465.5 L 1654.570312 1425.808594 C 1606.351562 1420.570312 1568.691406 1379.640625 1568.691406 1330.050781 C 1568.691406 1317.96875 1578.480469 1308.171875 1590.558594 1308.171875 C 1602.640625 1308.171875 1612.429688 1317.96875 1612.429688 1330.050781 C 1612.429688 1359.058594 1636.039062 1382.671875 1665.050781 1382.671875 L 1693.519531 1382.671875 C 1722.53125 1382.671875 1746.140625 1359.058594 1746.140625 1330.050781 C 1746.140625 1301.03125 1722.53125 1277.429688 1693.519531 1277.429688 L 1659.359375 1277.429688 C 1606.21875 1277.429688 1562.988281 1234.199219 1562.988281 1181.070312 C 1562.988281 1129.550781 1603.660156 1087.46875 1654.570312 1084.949219 L 1654.570312 1045.621094 C 1654.570312 1033.539062 1664.359375 1023.75 1676.441406 1023.75 Z M 1981.109375 1255.558594 C 1981.109375 1423.371094 1844.578125 1559.898438 1676.769531 1559.898438 C 1508.949219 1559.898438 1372.429688 1423.371094 1372.429688 1255.558594 C 1372.429688 1087.738281 1508.949219 951.210938 1676.769531 951.210938 C 1844.578125 951.210938 1981.109375 1087.738281 1981.109375 1255.558594 Z M 1328.679688 1255.558594 C 1328.679688 1447.488281 1484.828125 1603.640625 1676.769531 1603.640625 C 1868.699219 1603.640625 2024.851562 1447.488281 2024.851562 1255.558594 C 2024.851562 1063.621094 1868.699219 907.46875 1676.769531 907.46875 C 1484.828125 907.46875 1328.679688 1063.621094 1328.679688 1255.558594 Z M 187.066406 1823.519531 C 187.066406 1900.328125 249.550781 1962.808594 326.359375 1962.808594 C 338.4375 1962.808594 348.230469 1972.601562 348.230469 1984.679688 C 348.230469 1996.761719 338.4375 2006.558594 326.359375 2006.558594 C 225.429688 2006.558594 143.324219 1924.449219 143.324219 1823.519531 C 143.324219 1722.601562 225.429688 1640.488281 326.359375 1640.488281 C 338.4375 1640.488281 348.230469 1650.28125 348.230469 1662.359375 C 348.230469 1674.441406 338.4375 1684.230469 326.359375 1684.230469 C 249.550781 1684.230469 187.066406 1746.71875 187.066406 1823.519531 Z M 496.804688 1962.808594 L 1350.46875 1962.808594 C 1362.550781 1962.808594 1372.339844 1972.601562 1372.339844 1984.679688 C 1372.339844 1996.761719 1362.550781 2006.558594 1350.46875 2006.558594 L 496.804688 2006.558594 C 484.722656 2006.558594 474.929688 1996.761719 474.929688 1984.679688 C 474.929688 1972.601562 484.722656 1962.808594 496.804688 1962.808594 Z M 187.066406 1200.761719 C 187.066406 1277.570312 249.550781 1340.050781 326.359375 1340.050781 C 338.4375 1340.050781 348.230469 1349.839844 348.230469 1361.921875 C 348.230469 1374 338.4375 1383.800781 326.359375 1383.800781 C 225.429688 1383.800781 143.324219 1301.691406 143.324219 1200.761719 C 143.324219 1099.839844 225.429688 1017.730469 326.359375 1017.730469 C 338.4375 1017.730469 348.230469 1027.519531 348.230469 1039.601562 C 348.230469 1051.679688 338.4375 1061.46875 326.359375 1061.46875 C 249.550781 1061.46875 187.066406 1123.960938 187.066406 1200.761719 Z M 857.554688 1361.921875 C 857.554688 1374 847.761719 1383.789062 835.679688 1383.789062 L 496.804688 1383.789062 C 484.722656 1383.789062 474.929688 1374 474.929688 1361.921875 C 474.929688 1349.839844 484.722656 1340.050781 496.804688 1340.050781 L 835.679688 1340.050781 C 847.761719 1340.050781 857.554688 1349.839844 857.554688 1361.921875 Z M 350.0625 249.851562 L 1039.5 46.800781 C 1046.410156 44.769531 1053.519531 43.75 1060.640625 43.75 C 1067.75 43.75 1074.859375 44.769531 1081.78125 46.800781 L 1771.210938 249.851562 C 1771.941406 250.058594 1772.46875 250.21875 1772.46875 251.53125 C 1772.46875 252.851562 1771.941406 253 1771.210938 253.21875 L 1081.78125 456.261719 C 1067.949219 460.328125 1053.328125 460.328125 1039.5 456.261719 L 350.0625 253.21875 C 349.332031 253 348.804688 252.851562 348.804688 251.53125 C 348.804688 250.21875 349.332031 250.058594 350.0625 249.851562 Z M 1504.28125 713.300781 C 1504.28125 732.300781 1488.820312 747.761719 1469.808594 747.761719 L 651.457031 747.761719 C 632.453125 747.761719 616.996094 732.300781 616.996094 713.300781 L 616.996094 377.429688 L 1027.140625 498.21875 C 1038.101562 501.449219 1049.371094 503.058594 1060.640625 503.058594 C 1071.910156 503.058594 1083.179688 501.449219 1094.128906 498.21875 L 1504.28125 377.429688 Z M 415.824219 550.941406 C 415.824219 585.359375 367.023438 679.929688 326.929688 748.359375 C 286.835938 679.941406 238.035156 585.378906 238.035156 550.941406 C 238.035156 501.929688 277.910156 462.050781 326.929688 462.050781 C 375.945312 462.050781 415.824219 501.929688 415.824219 550.941406 Z M 305.058594 251.519531 C 305.058594 251.53125 305.058594 251.53125 305.058594 251.53125 L 305.058594 420.140625 C 242.296875 430.601562 194.292969 485.261719 194.292969 550.941406 C 194.292969 616.460938 296.667969 783.46875 308.339844 802.300781 C 312.328125 808.730469 319.359375 812.640625 326.929688 812.640625 C 334.5 812.640625 341.53125 808.730469 345.519531 802.300781 C 357.195312 783.46875 459.566406 616.460938 459.566406 550.941406 C 459.566406 485.261719 411.566406 430.601562 348.804688 420.140625 L 348.804688 298.449219 L 573.253906 364.550781 L 573.253906 713.300781 C 573.253906 756.421875 608.332031 791.511719 651.457031 791.511719 L 1469.808594 791.511719 C 1512.941406 791.511719 1548.019531 756.421875 1548.019531 713.300781 L 1548.019531 364.550781 L 1783.570312 295.179688 C 1803.089844 289.429688 1816.210938 271.890625 1816.210938 251.53125 C 1816.210938 231.171875 1803.089844 213.628906 1783.570312 207.878906 L 1094.128906 4.839844 C 1072.21875 -1.609375 1049.050781 -1.609375 1027.140625 4.839844 L 337.703125 207.878906 L 337.707031 207.878906 C 318.179688 213.628906 305.0625 231.171875 305.058594 251.519531 Z M 305.058594 251.519531"/></clipPath><clipPath id="b"><path d="M 43.746094 1200.761719 C 43.746094 1041.128906 173.617188 911.253906 333.25 911.253906 L 1062.050781 911.253906 C 1065.820312 913.796875 1068.910156 917.050781 1069.070312 918.585938 C 1069.179688 919.699219 1067.039062 925.804688 1054.449219 935.382812 C 970.785156 999.035156 922.800781 1095.761719 922.800781 1200.761719 C 922.800781 1305.761719 970.785156 1402.492188 1054.449219 1466.140625 C 1067.039062 1475.71875 1069.179688 1481.828125 1069.070312 1482.941406 C 1068.910156 1484.480469 1065.789062 1487.761719 1062.070312 1490.269531 L 333.25 1490.269531 C 173.617188 1490.269531 43.746094 1360.402344 43.746094 1200.761719 Z M 1731.683594 1720.320312 L 1745.292969 1719.480469 C 1842.824219 1713.488281 1942.523438 1689.808594 2050.082031 1647.078125 C 2142.3125 1610.449219 2247.820312 1631.527344 2318.882812 1700.789062 L 2457.339844 1835.761719 C 2458.566406 1836.960938 2459.933594 1838 2461.398438 1838.878906 L 2561.605469 1898.730469 C 2565.105469 1900.832031 2568.976562 1901.820312 2572.796875 1901.820312 C 2580.246094 1901.820312 2587.503906 1898.019531 2591.59375 1891.160156 C 2597.789062 1880.789062 2594.398438 1867.359375 2584.035156 1861.167969 L 2486.039062 1802.640625 L 2349.414062 1669.46875 C 2266.015625 1588.179688 2142.1875 1563.429688 2033.941406 1606.417969 C 1930.742188 1647.421875 1835.4375 1670.121094 1742.617188 1675.820312 L 1729.007812 1676.660156 C 1691.074219 1678.988281 1659.109375 1700.011719 1641.394531 1730.351562 L 1270.96875 1539.589844 C 1216.628906 1511.269531 1150.730469 1531.019531 1120.949219 1584.578125 C 1090.96875 1638.46875 1110.289062 1706.769531 1164 1737 L 1782.222656 2106.050781 C 1786.265625 2108.46875 1790.375 2110.78125 1794.496094 2113.03125 L 333.25 2113.03125 C 173.617188 2113.03125 43.746094 1983.160156 43.746094 1823.519531 C 43.746094 1663.890625 173.617188 1534.011719 333.25 1534.011719 L 1067.71875 1534.011719 C 1070.820312 1534.011719 1073.898438 1533.347656 1076.71875 1532.070312 C 1080.050781 1530.570312 1109.28125 1516.578125 1112.539062 1487.878906 C 1114.789062 1468.019531 1104.160156 1448.988281 1080.9375 1431.320312 C 1008.238281 1376.019531 966.542969 1291.980469 966.542969 1200.761719 C 966.542969 1109.539062 1008.238281 1025.511719 1080.9375 970.199219 C 1104.160156 952.53125 1114.789062 933.503906 1112.539062 913.648438 C 1109.28125 884.945312 1080.050781 870.953125 1076.71875 869.449219 C 1073.898438 868.171875 1070.820312 867.507812 1067.71875 867.507812 L 333.25 867.507812 C 149.496094 867.507812 0 1017.011719 0 1200.761719 C 0 1342.769531 89.316406 1464.238281 214.695312 1512.140625 C 89.316406 1560.039062 0 1681.519531 0 1823.519531 C 0 2007.28125 149.496094 2156.769531 333.25 2156.769531 L 1968.117188 2156.769531 C 1968.167969 2156.769531 1968.183594 2156.769531 1968.230469 2156.769531 L 2261.574219 2156.769531 L 2365.714844 2218.96875 C 2369.214844 2221.070312 2373.082031 2222.070312 2376.902344 2222.070312 C 2384.351562 2222.070312 2391.613281 2218.261719 2395.703125 2211.410156 C 2401.894531 2201.039062 2398.503906 2187.609375 2388.140625 2181.410156 L 2278.816406 2116.121094 C 2275.425781 2114.101562 2271.554688 2113.03125 2267.609375 2113.03125 L 1968.085938 2113.03125 C 1910.605469 2113.390625 1854.046875 2098 1804.652344 2068.5 L 1186.167969 1699.289062 C 1185.988281 1699.179688 1185.808594 1699.082031 1185.628906 1698.980469 C 1152.71875 1680.582031 1140.847656 1638.789062 1159.179688 1605.839844 C 1177.359375 1573.148438 1217.578125 1561.089844 1250.851562 1578.429688 L 1627.402344 1772.359375 C 1626.734375 1777.941406 1626.367188 1783.597656 1626.574219 1789.410156 C 1628.628906 1849.460938 1679.167969 1896.699219 1739.210938 1894.800781 L 2113.675781 1882.75 C 2125.742188 1882.359375 2135.214844 1872.25 2134.832031 1860.179688 C 2134.433594 1848.109375 2124.328125 1838.628906 2112.277344 1839.019531 L 1737.8125 1851.082031 C 1701.835938 1852.289062 1671.511719 1823.898438 1670.285156 1787.902344 C 1669.058594 1752.199219 1696.027344 1722.507812 1731.683594 1720.320312 Z M 1676.445312 1023.75 C 1688.511719 1023.75 1698.300781 1033.539062 1698.300781 1045.621094 L 1698.300781 1085.300781 C 1746.535156 1090.550781 1784.183594 1131.480469 1784.183594 1181.070312 C 1784.183594 1193.152344 1774.390625 1202.941406 1762.324219 1202.941406 C 1750.242188 1202.941406 1740.4375 1193.152344 1740.4375 1181.070312 C 1740.4375 1152.050781 1716.847656 1128.449219 1687.828125 1128.449219 L 1659.367188 1128.449219 C 1630.347656 1128.449219 1606.738281 1152.050781 1606.738281 1181.070312 C 1606.738281 1210.078125 1630.347656 1233.679688 1659.367188 1233.679688 L 1693.527344 1233.679688 C 1746.644531 1233.679688 1789.878906 1276.910156 1789.878906 1330.050781 C 1789.878906 1381.570312 1749.210938 1423.648438 1698.300781 1426.171875 L 1698.300781 1465.5 C 1698.300781 1477.570312 1688.511719 1487.371094 1676.445312 1487.371094 C 1664.363281 1487.371094 1654.574219 1477.570312 1654.574219 1465.5 L 1654.574219 1425.808594 C 1606.339844 1420.570312 1568.691406 1379.640625 1568.691406 1330.050781 C 1568.691406 1317.96875 1578.480469 1308.171875 1590.558594 1308.171875 C 1602.632812 1308.171875 1612.421875 1317.96875 1612.421875 1330.050781 C 1612.421875 1359.058594 1636.046875 1382.671875 1665.046875 1382.671875 L 1693.527344 1382.671875 C 1722.53125 1382.671875 1746.136719 1359.058594 1746.136719 1330.050781 C 1746.136719 1301.03125 1722.53125 1277.429688 1693.527344 1277.429688 L 1659.367188 1277.429688 C 1606.214844 1277.429688 1562.988281 1234.199219 1562.988281 1181.070312 C 1562.988281 1129.550781 1603.667969 1087.46875 1654.574219 1084.949219 L 1654.574219 1045.621094 C 1654.574219 1033.539062 1664.363281 1023.75 1676.445312 1023.75 Z M 1981.109375 1255.558594 C 1981.109375 1423.371094 1844.578125 1559.898438 1676.765625 1559.898438 C 1508.949219 1559.898438 1372.429688 1423.371094 1372.429688 1255.558594 C 1372.429688 1087.742188 1508.949219 951.214844 1676.765625 951.214844 C 1844.578125 951.214844 1981.109375 1087.742188 1981.109375 1255.558594 Z M 1328.679688 1255.558594 C 1328.679688 1447.488281 1484.832031 1603.640625 1676.765625 1603.640625 C 1868.691406 1603.640625 2024.851562 1447.488281 2024.851562 1255.558594 C 2024.851562 1063.621094 1868.691406 907.472656 1676.765625 907.472656 C 1484.832031 907.472656 1328.679688 1063.621094 1328.679688 1255.558594 Z M 187.066406 1823.519531 C 187.066406 1900.332031 249.550781 1962.808594 326.359375 1962.808594 C 338.4375 1962.808594 348.230469 1972.601562 348.230469 1984.679688 C 348.230469 1996.757812 338.4375 2006.558594 326.359375 2006.558594 C 225.429688 2006.558594 143.324219 1924.449219 143.324219 1823.519531 C 143.324219 1722.601562 225.429688 1640.488281 326.359375 1640.488281 C 338.4375 1640.488281 348.230469 1650.28125 348.230469 1662.359375 C 348.230469 1674.441406 338.4375 1684.230469 326.359375 1684.230469 C 249.550781 1684.230469 187.066406 1746.71875 187.066406 1823.519531 Z M 496.804688 1962.808594 L 1350.46875 1962.808594 C 1362.550781 1962.808594 1372.339844 1972.601562 1372.339844 1984.679688 C 1372.339844 1996.757812 1362.550781 2006.558594 1350.46875 2006.558594 L 496.804688 2006.558594 C 484.726562 2006.558594 474.929688 1996.757812 474.929688 1984.679688 C 474.929688 1972.601562 484.726562 1962.808594 496.804688 1962.808594 Z M 187.066406 1200.761719 C 187.066406 1277.570312 249.550781 1340.050781 326.359375 1340.050781 C 338.4375 1340.050781 348.230469 1349.839844 348.230469 1361.921875 C 348.230469 1374 338.4375 1383.800781 326.359375 1383.800781 C 225.429688 1383.800781 143.324219 1301.691406 143.324219 1200.761719 C 143.324219 1099.839844 225.429688 1017.730469 326.359375 1017.730469 C 338.4375 1017.730469 348.230469 1027.519531 348.230469 1039.601562 C 348.230469 1051.679688 338.4375 1061.46875 326.359375 1061.46875 C 249.550781 1061.46875 187.066406 1123.960938 187.066406 1200.761719 Z M 857.554688 1361.921875 C 857.554688 1374 847.761719 1383.789062 835.679688 1383.789062 L 496.804688 1383.789062 C 484.726562 1383.789062 474.929688 1374 474.929688 1361.921875 C 474.929688 1349.839844 484.726562 1340.050781 496.804688 1340.050781 L 835.679688 1340.050781 C 847.761719 1340.050781 857.554688 1349.839844 857.554688 1361.921875 Z M 350.0625 249.84375 L 1039.5 46.804688 C 1046.410156 44.765625 1053.519531 43.75 1060.640625 43.75 C 1067.75 43.75 1074.859375 44.765625 1081.78125 46.804688 L 1771.207031 249.84375 C 1771.941406 250.066406 1772.464844 250.226562 1772.464844 251.53125 C 1772.464844 252.851562 1771.941406 252.996094 1771.207031 253.21875 L 1081.78125 456.257812 C 1067.949219 460.332031 1053.332031 460.332031 1039.5 456.257812 L 350.0625 253.21875 C 349.332031 252.996094 348.800781 252.851562 348.800781 251.53125 C 348.800781 250.226562 349.332031 250.066406 350.0625 249.84375 Z M 1504.277344 713.300781 C 1504.277344 732.300781 1488.820312 747.761719 1469.808594 747.761719 L 651.457031 747.761719 C 632.453125 747.761719 616.992188 732.300781 616.992188 713.300781 L 616.992188 377.429688 L 1027.140625 498.21875 C 1038.097656 501.449219 1049.371094 503.058594 1060.640625 503.058594 C 1071.910156 503.058594 1083.179688 501.449219 1094.128906 498.21875 L 1504.277344 377.429688 Z M 415.824219 550.941406 C 415.824219 585.355469 367.019531 679.925781 326.925781 748.359375 C 286.835938 679.9375 238.035156 585.386719 238.035156 550.941406 C 238.035156 501.925781 277.910156 462.050781 326.929688 462.050781 C 375.945312 462.050781 415.824219 501.925781 415.824219 550.941406 Z M 305.058594 251.53125 L 305.058594 420.140625 C 242.296875 430.597656 194.292969 485.261719 194.292969 550.941406 C 194.292969 616.460938 296.667969 783.46875 308.339844 802.296875 C 312.332031 808.730469 319.359375 812.644531 326.929688 812.644531 C 334.5 812.644531 341.527344 808.730469 345.519531 802.296875 C 357.195312 783.46875 459.566406 616.460938 459.566406 550.941406 C 459.566406 485.261719 411.566406 430.597656 348.800781 420.140625 L 348.800781 298.441406 L 573.25 364.550781 L 573.25 713.300781 C 573.25 756.421875 608.332031 791.503906 651.457031 791.503906 L 1469.808594 791.503906 C 1512.9375 791.503906 1548.019531 756.421875 1548.019531 713.300781 L 1548.019531 364.550781 L 1783.578125 295.179688 C 1803.09375 289.433594 1816.210938 271.890625 1816.210938 251.53125 C 1816.210938 231.171875 1803.09375 213.628906 1783.578125 207.882812 L 1094.128906 4.84375 C 1072.21875 -1.617188 1049.050781 -1.617188 1027.140625 4.84375 L 337.703125 207.882812 L 337.707031 207.882812 C 318.179688 213.628906 305.0625 231.171875 305.058594 251.53125"/></clipPath><linearGradient gradientTransform="rotate(45 -351.285 392.136) scale(2878.22)" gradientUnits="userSpaceOnUse" id="c" x1="-.132" x2="1.051" xlink:actuate="onLoad" xlink:show="other" xlink:type="simple" xmlns:xlink="http://www.w3.org/1999/xlink" y1="0" y2="0"><stop offset="0" stop-color="#27d1ff"/><stop offset=".25" stop-color="#27d1ff"/><stop offset=".313" stop-color="#27d1ff"/><stop offset=".32" stop-color="#27d1ff"/><stop offset=".324" stop-color="#28d1fe"/><stop offset=".328" stop-color="#2ad1fc"/><stop offset=".332" stop-color="#2cd0fa"/><stop offset=".336" stop-color="#2ed0f8"/><stop offset=".34" stop-color="#30d0f6"/><stop offset=".344" stop-color="#33cff4"/><stop offset=".348" stop-color="#35cff2"/><stop offset=".352" stop-color="#37cfef"/><stop offset=".355" stop-color="#39cfed"/><stop offset=".359" stop-color="#3bceeb"/><stop offset=".363" stop-color="#3ecee9"/><stop offset=".367" stop-color="#40cee7"/><stop offset=".371" stop-color="#42cde5"/><stop offset=".375" stop-color="#44cde3"/><stop offset=".379" stop-color="#46cde1"/><stop offset=".383" stop-color="#49ccdf"/><stop offset=".387" stop-color="#4bccdc"/><stop offset=".391" stop-color="#4dccda"/><stop offset=".395" stop-color="#4fccd8"/><stop offset=".398" stop-color="#51cbd6"/><stop offset=".402" stop-color="#53cbd4"/><stop offset=".406" stop-color="#56cbd2"/><stop offset=".41" stop-color="#58cad0"/><stop offset=".414" stop-color="#5acace"/><stop offset=".418" stop-color="#5ccacc"/><stop offset=".422" stop-color="#5ecac9"/><stop offset=".426" stop-color="#61c9c7"/><stop offset=".43" stop-color="#63c9c5"/><stop offset=".434" stop-color="#65c9c3"/><stop offset=".438" stop-color="#67c8c1"/><stop offset=".441" stop-color="#69c8bf"/><stop offset=".445" stop-color="#6cc8bd"/><stop offset=".449" stop-color="#6ec8bb"/><stop offset=".453" stop-color="#70c7b8"/><stop offset=".457" stop-color="#72c7b6"/><stop offset=".461" stop-color="#74c7b4"/><stop offset=".465" stop-color="#76c6b2"/><stop offset=".469" stop-color="#79c6b0"/><stop offset=".473" stop-color="#7bc6ae"/><stop offset=".477" stop-color="#7dc5ac"/><stop offset=".48" stop-color="#7fc5aa"/><stop offset=".484" stop-color="#81c5a8"/><stop offset=".488" stop-color="#84c5a5"/><stop offset=".492" stop-color="#86c4a3"/><stop offset=".496" stop-color="#88c4a1"/><stop offset=".5" stop-color="#8ac49f"/><stop offset=".504" stop-color="#8cc39d"/><stop offset=".508" stop-color="#8ec39b"/><stop offset=".512" stop-color="#91c399"/><stop offset=".516" stop-color="#93c397"/><stop offset=".52" stop-color="#95c295"/><stop offset=".523" stop-color="#97c292"/><stop offset=".527" stop-color="#99c290"/><stop offset=".531" stop-color="#9cc18e"/><stop offset=".535" stop-color="#9ec18c"/><stop offset=".539" stop-color="#a0c18a"/><stop offset=".543" stop-color="#a2c088"/><stop offset=".547" stop-color="#a4c086"/><stop offset=".551" stop-color="#a7c084"/><stop offset=".555" stop-color="#a9c081"/><stop offset=".559" stop-color="#abbf7f"/><stop offset=".563" stop-color="#adbf7d"/><stop offset=".566" stop-color="#afbf7b"/><stop offset=".57" stop-color="#b1be79"/><stop offset=".574" stop-color="#b4be77"/><stop offset=".578" stop-color="#b6be75"/><stop offset=".582" stop-color="#b8be73"/><stop offset=".586" stop-color="#babd71"/><stop offset=".59" stop-color="#bcbd6e"/><stop offset=".594" stop-color="#bfbd6c"/><stop offset=".598" stop-color="#c1bc6a"/><stop offset=".602" stop-color="#c3bc68"/><stop offset=".605" stop-color="#c5bc66"/><stop offset=".609" stop-color="#c7bb64"/><stop offset=".613" stop-color="#cabb62"/><stop offset=".617" stop-color="#ccbb60"/><stop offset=".621" stop-color="#cebb5e"/><stop offset=".625" stop-color="#d0ba5b"/><stop offset=".629" stop-color="#d2ba59"/><stop offset=".633" stop-color="#d4ba57"/><stop offset=".637" stop-color="#d7b955"/><stop offset=".641" stop-color="#d9b953"/><stop offset=".645" stop-color="#dbb951"/><stop offset=".648" stop-color="#ddb94f"/><stop offset=".652" stop-color="#dfb84d"/><stop offset=".656" stop-color="#e2b84a"/><stop offset=".66" stop-color="#e4b848"/><stop offset=".664" stop-color="#e6b746"/><stop offset=".668" stop-color="#e8b744"/><stop offset=".672" stop-color="#eab742"/><stop offset=".676" stop-color="#edb640"/><stop offset=".68" stop-color="#efb63e"/><stop offset=".684" stop-color="#f1b63c"/><stop offset=".688" stop-color="#f3b63a"/><stop offset=".691" stop-color="#f5b537"/><stop offset=".695" stop-color="#f7b535"/><stop offset=".699" stop-color="#fab533"/><stop offset=".703" stop-color="#fcb431"/><stop offset=".707" stop-color="#fdb430"/><stop offset=".711" stop-color="#ffb42e"/><stop offset=".719" stop-color="#ffb42e"/><stop offset=".75" stop-color="#ffb42e"/><stop offset="1" stop-color="#ffb42e"/></linearGradient></defs><g><g clip-path="url(#a)"><g clip-path="url(#b)"><path d="M 1297.34375 -1297.34375 L -1111.035156 1111.035156 L 1297.34375 3519.414062 L 3705.726562 1111.035156 Z M 1297.34375 -1297.34375" fill="url(#c)"/></g></g></g></svg>