<svg width="26" height="29" viewBox="0 0 26 29" fill="none" xmlns="http://www.w3.org/2000/svg">
<path d="M12.6457 14.3333C16.3276 14.3333 19.3123 11.3486 19.3123 7.66667C19.3123 3.98477 16.3276 1 12.6457 1C8.96377 1 5.979 3.98477 5.979 7.66667C5.979 11.3486 8.96377 14.3333 12.6457 14.3333Z" stroke="white" stroke-width="2"/>
<path d="M19.3126 17H19.7819C20.7567 17.0003 21.6978 17.3565 22.4285 18.0017C23.1591 18.6469 23.629 19.5368 23.7499 20.504L24.2712 24.6693C24.3181 25.0446 24.2847 25.4255 24.1731 25.7868C24.0615 26.1481 23.8744 26.4816 23.6241 26.7651C23.3738 27.0485 23.0661 27.2755 22.7213 27.431C22.3766 27.5864 22.0027 27.6668 21.6246 27.6667H3.66725C3.28909 27.6668 2.91524 27.5864 2.57051 27.431C2.22578 27.2755 1.91805 27.0485 1.66775 26.7651C1.41745 26.4816 1.2303 26.1481 1.11872 25.7868C1.00714 25.4255 0.973689 25.0446 1.02058 24.6693L1.54058 20.504C1.66151 19.5363 2.1318 18.6461 2.86302 18.0008C3.59425 17.3555 4.53602 16.9996 5.51125 17H5.97925" stroke="white" stroke-width="2" stroke-linecap="round" stroke-linejoin="round"/>
</svg>
