<?xml version="1.0" encoding="UTF-8" standalone="no"?><svg xmlns="http://www.w3.org/2000/svg" xmlns:xlink="http://www.w3.org/1999/xlink" fill="#000000" height="62.7" preserveAspectRatio="xMidYMid meet" version="1" viewBox="0.8 0.7 62.5 62.7" width="62.5" zoomAndPan="magnify"><g id="change1_1"><path d="m26 12.64961h-10a1.25 1.25 0 0 1 0-2.5h10a1.25 1.25 0 0 1 0 2.5z" fill="#5dd1fd"/></g><g id="change1_2"><path d="m26 25.4499h-18a1.25 1.25 0 0 1 0-2.5h18a1.25 1.25 0 0 1 0 2.5z" fill="#5dd1fd"/></g><g id="change1_3"><path d="m26 31.8498h-18a1.25 1.25 0 0 1 0-2.5h18a1.25 1.25 0 0 1 0 2.5z" fill="#5dd1fd"/></g><g id="change1_4"><path d="m26 19.04951h-18a1.25 1.25 0 0 1 0-2.5h18a1.25 1.25 0 0 1 0 2.5z" fill="#5dd1fd"/></g><g id="change2_1"><path d="m11 12.64961h-3a1.25 1.25 0 0 1 0-2.5h3a1.25 1.25 0 0 1 0 2.5z" fill="#efcb58"/></g><g fill="#5dd1fd" id="change1_5"><path d="m52.45 7.482v4.068h4.068z"/><path d="m51.2002 14.04951a1.24991 1.24991 0 0 1 -1.25-1.25v-6.0498h-17.9502a1.24991 1.24991 0 0 0 -1.25 1.25v26a1.24991 1.24991 0 0 0 1.25 1.25h24a1.24991 1.24991 0 0 0 1.25-1.25v-19.9502zm-16.7002-3.8999h11.7002a1.25 1.25 0 0 1 0 2.5h-11.7002a1.25 1.25 0 0 1 0-2.5zm19 21.70019h-19a1.25 1.25 0 0 1 0-2.5h19a1.25 1.25 0 0 1 0 2.5zm0-6.3999h-19a1.25 1.25 0 0 1 0-2.5h19a1.25 1.25 0 0 1 0 2.5zm0-6.40039h-19a1.25 1.25 0 0 1 0-2.5h19a1.25 1.25 0 0 1 0 2.5z"/><path d="m60 .74971h-56a3.25376 3.25376 0 0 0 -3.25 3.25v44a3.25377 3.25377 0 0 0 3.25 3.25h13.62445l-4.27875 10.269a1.25049 1.25049 0 0 0 2.3086.96191l4.67956-11.23095h10.41614v10.75a1.25 1.25 0 0 0 2.5 0v-10.75h10.41614l4.67956 11.231a1.25049 1.25049 0 0 0 2.3086-.96191l-4.27875-10.269h13.62445a3.25377 3.25377 0 0 0 3.25-3.25v-44a3.25376 3.25376 0 0 0 -3.25-3.25005zm.75 47.25a.75113.75113 0 0 1 -.75.75h-56a.75113.75113 0 0 1 -.75-.75v-44a.75113.75113 0 0 1 .75-.75h56a.75113.75113 0 0 1 .75.75z"/><path d="m56 40.5832h-24a1.25 1.25 0 0 1 0-2.5h24a1.25 1.25 0 0 1 0 2.5z"/><path d="m56 45.91621h-24a1.25 1.25 0 0 1 0-2.5h24a1.25 1.25 0 0 1 0 2.5z"/></g><g id="change3_1"><rect fill="#cc57c7" height="7.833" rx="1.25" width="20.5" x="6.75" y="38.083"/></g></svg>