<?xml version="1.0" encoding="UTF-8"?><svg xmlns="http://www.w3.org/2000/svg" xmlns:xlink="http://www.w3.org/1999/xlink" height="107.7" preserveAspectRatio="xMidYMid meet" version="1.0" viewBox="14.8 9.6 98.5 107.7" width="98.5" zoomAndPan="magnify"><defs><linearGradient gradientUnits="userSpaceOnUse" id="a" x1="25.389" x2="102.611" xlink:actuate="onLoad" xlink:show="other" xlink:type="simple" xmlns:xlink="http://www.w3.org/1999/xlink" y1="32.111" y2="109.333"><stop offset="0" stop-color="#3ed8e0"/><stop offset=".479" stop-color="#3a7ee2"/><stop offset=".635" stop-color="#6054e5"/><stop offset=".79" stop-color="#8031e7"/><stop offset=".917" stop-color="#931ce8"/><stop offset="1" stop-color="#9a14e9"/></linearGradient></defs><g><path d="M78.979,47.5l-9.051-1.382-4.111-8.182a2,2,0,0,0-3.574,0l-4.111,8.182L49.081,47.5a2,2,0,0,0-1.1,3.4l6.51,6.438L53,66.37a2,2,0,0,0,2.892,2.1l8.134-4.2,8.135,4.2a2,2,0,0,0,2.892-2.1l-1.482-9.035,6.51-6.437a2,2,0,0,0-1.1-3.4Zm-8.953,7.72a2,2,0,0,0-.567,1.746l1.005,6.127-5.517-2.85a2,2,0,0,0-1.836,0L57.6,63.091,58.6,56.964a2,2,0,0,0-.567-1.746l-4.415-4.366,6.138-.937a2,2,0,0,0,1.485-1.079l2.788-5.549,2.788,5.549A2,2,0,0,0,68.3,49.915l6.138.937ZM93.4,54A29.4,29.4,0,1,0,64,83.4,29.429,29.429,0,0,0,93.4,54ZM64,79.4A25.4,25.4,0,1,1,89.4,54,25.425,25.425,0,0,1,64,79.4Zm48.715,17.4L99.241,78.915a8.267,8.267,0,0,0,3.97-7.04V65.646a4.256,4.256,0,0,1,.569-2.125l3.115-5.4a8.269,8.269,0,0,0,0-8.25l-3.115-5.4a4.256,4.256,0,0,1-.569-2.125V36.125a8.273,8.273,0,0,0-4.125-7.145l-5.4-3.114a4.263,4.263,0,0,1-1.556-1.557l-3.115-5.4a8.271,8.271,0,0,0-7.145-4.124h-6.23a4.253,4.253,0,0,1-2.125-.57l-5.4-3.115a8.274,8.274,0,0,0-8.25,0l-5.4,3.116a4.259,4.259,0,0,1-2.125.569h-6.23a8.271,8.271,0,0,0-7.145,4.124l-3.115,5.4a4.256,4.256,0,0,1-1.556,1.556l-5.4,3.115a8.273,8.273,0,0,0-4.125,7.145v6.229a4.256,4.256,0,0,1-.569,2.125l-3.115,5.4a8.269,8.269,0,0,0,0,8.25l3.115,5.4a4.256,4.256,0,0,1,.569,2.125v6.229a8.267,8.267,0,0,0,3.97,7.04L15.285,96.8a2,2,0,0,0-.159,2.16,2.024,2.024,0,0,0,1.9,1.038l17.141-1.243,3.53,16.819a2,2,0,0,0,3.555.793L57.121,95.305l2.754,1.59a8.274,8.274,0,0,0,8.25,0L70.879,95.3l15.869,21.059a2,2,0,0,0,3.555-.793l3.53-16.819L110.973,100a2.026,2.026,0,0,0,1.9-1.038A2,2,0,0,0,112.715,96.8ZM40.708,110.439,37.723,96.22a2.017,2.017,0,0,0-2.1-1.584L21.129,95.687,32.241,80.94l2.068,1.194a4.263,4.263,0,0,1,1.556,1.557l3.115,5.4a8.271,8.271,0,0,0,7.145,4.124h6.23a4.239,4.239,0,0,1,1.2.18ZM66.125,93.431a4.257,4.257,0,0,1-4.25,0L56.48,90.316a8.259,8.259,0,0,0-4.125-1.106h-6.23a4.26,4.26,0,0,1-3.681-2.124l-3.115-5.4a8.278,8.278,0,0,0-3.02-3.021l-5.4-3.115a4.259,4.259,0,0,1-2.125-3.68V65.646a8.259,8.259,0,0,0-1.105-4.125l-3.115-5.4a4.261,4.261,0,0,1,0-4.25l3.115-5.4a8.259,8.259,0,0,0,1.105-4.125V36.125a4.259,4.259,0,0,1,2.125-3.68l5.4-3.116a8.27,8.27,0,0,0,3.019-3.02l3.115-5.4a4.26,4.26,0,0,1,3.681-2.124h6.23a8.265,8.265,0,0,0,4.125-1.105l5.4-3.115a4.257,4.257,0,0,1,4.25,0l5.395,3.114a8.259,8.259,0,0,0,4.125,1.106h6.23a4.26,4.26,0,0,1,3.681,2.124l3.115,5.4a8.278,8.278,0,0,0,3.02,3.021l5.4,3.115a4.259,4.259,0,0,1,2.125,3.68v6.229a8.259,8.259,0,0,0,1.105,4.125l3.115,5.4a4.261,4.261,0,0,1,0,4.25l-3.115,5.4a8.259,8.259,0,0,0-1.105,4.125v6.229a4.259,4.259,0,0,1-2.125,3.68l-5.4,3.116a8.27,8.27,0,0,0-3.019,3.02l-3.115,5.4a4.26,4.26,0,0,1-3.681,2.124h-6.23a8.265,8.265,0,0,0-4.125,1.105Zm26.254,1.205a2.015,2.015,0,0,0-2.1,1.584l-2.984,14.22L74.444,93.389a4.243,4.243,0,0,1,1.2-.179h6.23a8.271,8.271,0,0,0,7.145-4.124l3.115-5.4a4.256,4.256,0,0,1,1.556-1.556l2.069-1.195,11.112,14.746Z" fill="url(#a)"/></g></svg>