<?xml version="1.0" encoding="UTF-8" standalone="no"?><svg xmlns="http://www.w3.org/2000/svg" xmlns:xlink="http://www.w3.org/1999/xlink" fill="#000000" height="2761.6" preserveAspectRatio="xMidYMid meet" version="1" viewBox="-0.0 0.0 2956.0 2761.6" width="2956" zoomAndPan="magnify"><defs><clipPath id="a"><path d="M 411 1970 L 1525 1970 L 1525 2761.570312 L 411 2761.570312 Z M 411 1970"/></clipPath></defs><g><g id="change1_1"><path d="M 2494.453125 913.914062 L 2507.769531 913.914062 C 2560.96875 913.914062 2605.167969 953.171875 2612.914062 1004.25 C 2620.910156 1002.640625 2628.992188 1001.371094 2637.140625 1000.457031 C 2610.574219 910.410156 2575.707031 823.582031 2533.148438 741.632812 C 2504.855469 687.128906 2473.105469 634.777344 2438.257812 584.917969 C 2456.46875 544.273438 2450.335938 497.96875 2421.957031 463.527344 C 2412.164062 451.617188 2402.050781 439.738281 2391.902344 428.21875 C 2148.699219 152.078125 1824.121094 0.0078125 1477.964844 0.0078125 C 1131.828125 0.0078125 807.285156 152.078125 564.105469 428.21875 C 553.960938 439.738281 543.84375 451.617188 534.042969 463.492188 C 505.652344 497.953125 499.527344 544.253906 517.71875 584.917969 C 482.855469 634.761719 451.105469 687.128906 422.796875 741.648438 C 380.238281 823.582031 345.363281 910.390625 318.792969 1000.4375 C 326.957031 1001.371094 335.058594 1002.640625 343.078125 1004.25 C 350.828125 953.171875 395.03125 913.914062 448.230469 913.914062 L 461.519531 913.914062 C 498.949219 819.496094 545.777344 731.667969 600.628906 651.804688 C 608.320312 653.363281 616.257812 654.191406 624.363281 654.191406 C 659.359375 654.191406 692.257812 638.625 714.621094 611.464844 C 839.699219 459.613281 997.472656 347.101562 1170.898438 286.074219 C 1269.945312 251.140625 1373.253906 233.4375 1477.964844 233.4375 C 1764.605469 233.4375 2042.828125 371.363281 2241.304688 611.835938 C 2263.515625 638.757812 2296.296875 654.191406 2331.234375 654.191406 L 2331.621094 654.191406 C 2339.722656 654.191406 2347.648438 653.363281 2355.339844 651.804688 C 2409.945312 731.363281 2456.859375 819.089844 2494.453125 913.914062" fill="#44a2c6"/></g><g clip-path="url(#a)" id="change1_4"><path d="M 1510.019531 2594.710938 L 1509.988281 2594.648438 C 1490.21875 2559.148438 1452.679688 2537.101562 1412 2537.101562 C 1375.890625 2537.101562 1341.78125 2554.648438 1320.761719 2584.039062 L 1306.980469 2603.308594 L 1283.699219 2598.898438 C 1080.03125 2560.289062 886.785156 2457.621094 724.84375 2301.988281 C 627.542969 2208.570312 544.628906 2099.621094 478.175781 1977.910156 L 448.230469 1977.910156 C 435.148438 1977.910156 422.671875 1975.269531 411.304688 1970.5 C 436.160156 2019.03125 463.578125 2065.910156 493.367188 2110.769531 C 549.515625 2195.328125 614.402344 2273.191406 686.230469 2342.199219 C 771.824219 2424.410156 865.789062 2492.769531 965.511719 2545.390625 C 1064.308594 2597.53125 1168.570312 2634.101562 1275.371094 2654.101562 L 1297.890625 2658.320312 L 1304.191406 2680.351562 C 1317.871094 2728.167969 1362.210938 2761.570312 1412 2761.570312 C 1457.671875 2761.570312 1498.390625 2734.300781 1515.738281 2692.101562 C 1521.390625 2678.449219 1524.238281 2664.089844 1524.238281 2649.339844 C 1524.238281 2630.160156 1519.328125 2611.289062 1510.050781 2594.769531 L 1510.019531 2594.710938" fill="#44a2c6"/></g><g id="change1_2"><path d="M 455.398438 1940.75 C 463.242188 1940.75 469.664062 1934.328125 469.664062 1926.488281 L 469.664062 964.734375 C 469.664062 956.878906 463.234375 950.445312 455.378906 950.445312 L 447.4375 950.445312 C 398.476562 950.445312 358.417969 990.5 358.417969 1039.457031 C 334.378906 1027.988281 307.65625 1021.179688 279.433594 1020.3125 C 276.75 1020.234375 274.085938 1020.179688 271.425781 1020.179688 C 263.835938 1020.179688 256.308594 1020.511719 248.871094 1021.179688 C 137.84375 1030.800781 45.269531 1110.902344 18.15625 1217.214844 C 13.53125 1235.3125 10.804688 1254.191406 10.214844 1273.582031 L 0.117188 1603.570312 C 0.0078125 1606.949219 -0.015625 1610.292969 0.0078125 1613.648438 C 1.078125 1752.859375 113.0625 1868.53125 253.386719 1872.808594 C 255.417969 1872.867188 257.421875 1872.890625 259.449219 1872.890625 C 273.0625 1872.890625 286.367188 1871.5 299.261719 1868.859375 C 320.332031 1864.5 340.246094 1856.800781 358.417969 1846.300781 C 358.417969 1898.25 400.917969 1940.75 452.867188 1940.75 L 455.398438 1940.75" fill="#44a2c6"/></g><g id="change1_3"><path d="M 2955.878906 1603.566406 L 2945.777344 1273.578125 C 2945.195312 1254.1875 2942.476562 1235.316406 2937.851562 1217.21875 C 2910.738281 1110.878906 2818.105469 1030.777344 2707.066406 1021.15625 C 2699.648438 1020.507812 2692.140625 1020.175781 2684.578125 1020.175781 C 2681.914062 1020.175781 2679.246094 1020.226562 2676.582031 1020.308594 C 2648.34375 1021.175781 2621.632812 1027.988281 2597.585938 1039.457031 C 2597.585938 990.5 2557.542969 950.441406 2508.578125 950.441406 L 2500.636719 950.441406 C 2492.78125 950.441406 2486.34375 956.871094 2486.34375 964.730469 L 2486.34375 1187.894531 C 2484.421875 1199.988281 2483.589844 1212.398438 2483.96875 1225.066406 L 2486.34375 1302.636719 L 2486.34375 1926.488281 C 2486.34375 1934.328125 2492.765625 1940.75 2500.597656 1940.75 L 2503.136719 1940.75 C 2555.078125 1940.75 2597.585938 1898.246094 2597.585938 1846.296875 C 2601.71875 1848.675781 2605.890625 1850.910156 2610.1875 1852.996094 C 2636.410156 1865.738281 2665.734375 1872.886719 2696.582031 1872.886719 C 2698.578125 1872.886719 2700.609375 1872.867188 2702.640625 1872.808594 C 2842.953125 1868.527344 2954.917969 1752.859375 2955.988281 1613.648438 C 2956.023438 1610.289062 2955.988281 1606.945312 2955.878906 1603.566406" fill="#44a2c6"/></g><g id="change2_1"><path d="M 1908.261719 1351.179688 C 1904.921875 1417.203125 1851.277344 1470.839844 1785.257812 1474.191406 C 1708.160156 1478.09375 1644.8125 1414.761719 1648.722656 1337.664062 C 1652.0625 1271.644531 1705.703125 1217.988281 1771.726562 1214.648438 C 1848.835938 1210.738281 1912.183594 1274.074219 1908.261719 1351.179688 Z M 1607.769531 1351.179688 C 1604.417969 1417.203125 1550.773438 1470.839844 1484.753906 1474.191406 C 1407.648438 1478.09375 1344.316406 1414.75 1348.226562 1337.652344 C 1351.570312 1271.628906 1405.21875 1217.988281 1471.234375 1214.648438 C 1548.34375 1210.738281 1611.679688 1274.074219 1607.769531 1351.179688 Z M 1307.265625 1351.179688 C 1303.929688 1417.203125 1250.277344 1470.839844 1184.257812 1474.191406 C 1107.160156 1478.09375 1043.816406 1414.761719 1047.730469 1337.652344 C 1051.070312 1271.628906 1104.71875 1217.988281 1170.738281 1214.648438 C 1247.835938 1210.738281 1311.175781 1274.074219 1307.265625 1351.179688 Z M 2316.816406 1335.09375 C 2316.816406 908.402344 1941.25 562.5 1478 562.5 C 1014.730469 562.5 639.183594 908.402344 639.183594 1335.09375 C 639.183594 1761.769531 1014.730469 2107.679688 1478 2107.679688 C 1598.6875 2107.679688 1713.40625 2084.160156 1817.09375 2041.871094 C 1860.261719 2024.261719 1908.019531 2021.3125 1953.046875 2033.371094 L 2233.140625 2108.421875 C 2262.847656 2116.378906 2290.023438 2089.203125 2282.066406 2059.5 L 2218.0625 1820.652344 C 2204.144531 1768.683594 2210.585938 1713.523438 2235.34375 1665.75 C 2287.324219 1565.519531 2316.816406 1453.582031 2316.816406 1335.09375" fill="#cc57c7"/></g></g></svg>