<svg width="20" height="18" viewBox="0 0 20 18" fill="none" xmlns="http://www.w3.org/2000/svg">
<path d="M19.3475 9.41028C19.7675 8.92871 20 8.33867 20 7.72477C20 6.75077 19.3725 5.82883 18.3625 5.31471C18.1025 5.18238 17.8064 5.11273 17.505 5.11297H11.51L11.66 2.44695C11.695 1.80267 11.4325 1.19094 10.9225 0.72455C10.6722 0.494669 10.3703 0.311768 10.0353 0.187148C9.70032 0.0625287 9.33946 -0.00116059 8.975 1.60095e-05C7.675 1.60095e-05 6.525 0.759259 6.18 1.84606L4.0325 8.59247H4.025V17.8769H15.8325C16.0625 17.8769 16.2875 17.8379 16.495 17.7598C17.685 17.3194 18.4525 16.3107 18.4525 15.1914C18.4525 14.918 18.4075 14.6491 18.3175 14.3887C18.7375 13.9072 18.97 13.3171 18.97 12.7032C18.97 12.4299 18.925 12.1609 18.835 11.9006C19.255 11.419 19.4875 10.829 19.4875 10.2151C19.4825 9.94175 19.4375 9.6706 19.3475 9.41028V9.41028ZM0 9.28664V17.1828C0 17.5667 0.3575 17.8769 0.8 17.8769H2.425V8.59247H0.8C0.3575 8.59247 0 8.90268 0 9.28664Z" fill="#DC2020" fill-opacity="0.8"/>
</svg>
