<svg width="26" height="24" viewBox="0 0 26 24" fill="none" xmlns="http://www.w3.org/2000/svg">
<g clip-path="url(#clip0_483_52)">
<path d="M22.3127 17.2966C21.3026 15.9403 19.8603 14.9689 18.2238 14.5426L18.1728 14.5316L16.9937 16.5216C16.993 16.7865 16.8873 17.0404 16.7 17.2278C16.5126 17.4152 16.2587 17.5208 15.9938 17.5216C15.4438 17.5216 14.9937 17.0716 14.4688 15.7476V15.7156C14.4688 15.384 14.3371 15.0661 14.1026 14.8317C13.8682 14.5973 13.5503 14.4656 13.2188 14.4656C12.8872 14.4656 12.5693 14.5973 12.3349 14.8317C12.1004 15.0661 11.9688 15.384 11.9688 15.7156V15.7486V15.7466C11.4087 17.0716 10.9548 17.5206 10.4058 17.5206C10.1408 17.5198 9.88688 17.4142 9.69952 17.2268C9.51215 17.0394 9.40654 16.7855 9.40575 16.5206L8.26375 14.5266C6.61599 14.9457 5.1605 15.9143 4.13775 17.2726L4.12375 17.2916C3.71835 17.9546 3.49261 18.7118 3.46875 19.4886V19.4956C3.47375 19.6456 3.46875 19.8206 3.46875 19.9956V21.9956C3.46875 22.526 3.67946 23.0347 4.05454 23.4098C4.42961 23.7848 4.93832 23.9956 5.46875 23.9956H20.9688C21.4992 23.9956 22.0079 23.7848 22.383 23.4098C22.758 23.0347 22.9688 22.526 22.9688 21.9956V19.9956C22.9688 19.8216 22.9638 19.6456 22.9688 19.4956C22.9436 18.7099 22.714 17.9444 22.3027 17.2746L22.3137 17.2946L22.3127 17.2966ZM7.96775 5.29156C7.96775 8.21156 9.78775 12.5016 13.2178 12.5016C16.5878 12.5016 18.4678 8.21156 18.4678 5.29156V5.22656C18.4678 4.53712 18.332 3.85443 18.0681 3.21747C17.8043 2.58052 17.4176 2.00176 16.9301 1.51425C16.4426 1.02674 15.8638 0.640032 15.2268 0.376195C14.5899 0.112358 13.9072 -0.0234375 13.2178 -0.0234375C12.5283 -0.0234375 11.8456 0.112358 11.2087 0.376195C10.5717 0.640032 9.99295 1.02674 9.50544 1.51425C9.01793 2.00176 8.63122 2.58052 8.36738 3.21747C8.10355 3.85443 7.96775 4.53712 7.96775 5.22656V5.29456V5.29156Z" fill="black" fill-opacity="0.5"/>
<path d="M19.2012 7.00816C19.2012 8.91016 20.3872 11.7062 22.6212 11.7062C24.8162 11.7062 26.0412 8.91116 26.0412 7.00816V6.95616C26.0412 6.04885 25.6808 5.17871 25.0392 4.53714C24.3977 3.89558 23.5275 3.53516 22.6202 3.53516C21.7129 3.53516 20.8428 3.89558 20.2012 4.53714C19.5596 5.17871 19.1992 6.04885 19.1992 6.95616V7.01116V7.00816H19.2012Z" fill="black" fill-opacity="0.5"/>
<path d="M0.002 8.60972C0.002 10.5117 1.188 13.3077 3.422 13.3077C5.617 13.3077 6.842 10.5127 6.842 8.60972V8.55772C6.842 7.65041 6.48157 6.78027 5.84001 6.13871C5.19845 5.49714 4.32831 5.13672 3.421 5.13672C2.51369 5.13672 1.64355 5.49714 1.00199 6.13871C0.360426 6.78027 0 7.65041 0 8.55772L0 8.61272V8.60972H0.002Z" fill="black" fill-opacity="0.5"/>
</g>
<defs>
<clipPath id="clip0_483_52">
<rect width="26" height="24" fill="white"/>
</clipPath>
</defs>
</svg>
